<svg width="29" height="28" viewBox="0 0 29 28" fill="none" xmlns="http://www.w3.org/2000/svg">
<path d="M24.1191 7H20.6191V4.8125C20.6191 3.84727 19.8344 3.0625 18.8691 3.0625H10.1191C9.15391 3.0625 8.36914 3.84727 8.36914 4.8125V7H4.86914C4.38516 7 3.99414 7.39102 3.99414 7.875V8.75C3.99414 8.87031 4.09258 8.96875 4.21289 8.96875H5.86445L6.53984 23.2695C6.58359 24.202 7.35469 24.9375 8.28711 24.9375H20.7012C21.6363 24.9375 22.4047 24.2047 22.4484 23.2695L23.1238 8.96875H24.7754C24.8957 8.96875 24.9941 8.87031 24.9941 8.75V7.875C24.9941 7.39102 24.6031 7 24.1191 7ZM18.6504 7H10.3379V5.03125H18.6504V7Z" fill="#878787"/>
</svg>
