<svg width="86" height="44" viewBox="0 0 86 44" fill="none" xmlns="http://www.w3.org/2000/svg">
<g clip-path="url(#clip0_265_137)">
<path d="M22.6064 30.1926H8.45016L9.16094 28.5273L20.9708 28.5027C21.3702 28.5027 21.7125 28.1746 21.7838 27.7207L23.4194 17.1906C23.4622 16.9145 23.398 16.6301 23.2411 16.4141C23.1635 16.3078 23.0668 16.2221 22.9576 16.1631C22.8484 16.1041 22.7294 16.0731 22.6087 16.0723L7.58486 16.0148L7.4565 15.3203C7.37567 14.8773 7.0286 14.5547 6.63399 14.5547H2.96122C2.73866 14.5547 2.52522 14.6564 2.36785 14.8374C2.21048 15.0184 2.12207 15.2639 2.12207 15.5199C2.12207 15.7759 2.21048 16.0214 2.36785 16.2024C2.52522 16.3835 2.73866 16.4852 2.96122 16.4852H5.95411L6.51513 19.5531L7.89628 27.2449L6.11814 30.5836C6.02579 30.727 5.97018 30.8972 5.95757 31.075C5.94497 31.2528 5.97588 31.4312 6.04682 31.5898C6.18945 31.9152 6.47709 32.1203 6.79564 32.1203H8.28851C7.97025 32.6065 7.79835 33.1988 7.79881 33.8074C7.79881 35.3551 8.89232 36.6129 10.2378 36.6129C11.5833 36.6129 12.6768 35.3551 12.6768 33.8074C12.6768 33.1977 12.5009 32.6043 12.1871 32.1203H16.0168C15.6985 32.6065 15.5266 33.1988 15.5271 33.8074C15.5271 35.3551 16.6206 36.6129 17.9661 36.6129C19.3116 36.6129 20.4051 35.3551 20.4051 33.8074C20.4051 33.1977 20.2292 32.6043 19.9154 32.1203H22.6087C23.0699 32.1203 23.4479 31.6883 23.4479 31.1551C23.4465 30.8994 23.3573 30.6546 23.1996 30.4743C23.0419 30.294 22.8287 30.1927 22.6064 30.1926ZM7.93431 17.918L21.6222 17.9699L20.2815 26.6051L9.52941 26.627L7.93431 17.918ZM10.2378 34.6715C9.82418 34.6715 9.48662 34.2832 9.48662 33.8074C9.48662 33.3316 9.82418 32.9434 10.2378 32.9434C10.6514 32.9434 10.989 33.3316 10.989 33.8074C10.989 34.0366 10.9099 34.2564 10.769 34.4184C10.6281 34.5805 10.437 34.6715 10.2378 34.6715ZM17.9661 34.6715C17.5524 34.6715 17.2149 34.2832 17.2149 33.8074C17.2149 33.3316 17.5524 32.9434 17.9661 32.9434C18.3797 32.9434 18.7173 33.3316 18.7173 33.8074C18.7173 34.0366 18.6381 34.2564 18.4972 34.4184C18.3564 34.5805 18.1653 34.6715 17.9661 34.6715Z" fill="black"/>
<path d="M83.0098 32.7848V26.1365H85.3431V34.1145H83.0098M83.0098 39.4331H85.3431V36.7738H83.0098M71.3431 34.1145C74.4581 34.1145 80.6764 35.8962 80.6764 39.4331V43.4221H62.0098V39.4331C62.0098 35.8962 68.2281 34.1145 71.3431 34.1145ZM71.3431 22.1475C72.5808 22.1475 73.7678 22.7078 74.6429 23.7053C75.5181 24.7027 76.0098 26.0555 76.0098 27.4661C76.0098 28.8767 75.5181 30.2296 74.6429 31.227C73.7678 32.2244 72.5808 32.7848 71.3431 32.7848C70.1054 32.7848 68.9184 32.2244 68.0433 31.227C67.1681 30.2296 66.6764 28.8767 66.6764 27.4661C66.6764 26.0555 67.1681 24.7027 68.0433 23.7053C68.9184 22.7078 70.1054 22.1475 71.3431 22.1475ZM71.3431 36.6408C67.8781 36.6408 64.2264 38.5821 64.2264 39.4331V40.8958H78.4598V39.4331C78.4598 38.5821 74.8081 36.6408 71.3431 36.6408ZM71.3431 24.6738C70.6933 24.6738 70.0702 24.968 69.6107 25.4917C69.1512 26.0153 68.8931 26.7256 68.8931 27.4661C68.8931 28.2067 69.1512 28.9169 69.6107 29.4406C70.0702 29.9642 70.6933 30.2584 71.3431 30.2584C71.9929 30.2584 72.616 29.9642 73.0755 29.4406C73.535 28.9169 73.7931 28.2067 73.7931 27.4661C73.7931 26.7256 73.535 26.0153 73.0755 25.4917C72.616 24.968 71.9929 24.6738 71.3431 24.6738Z" fill="black"/>
</g>
<defs>
<clipPath id="clip0_265_137">
<rect width="84.6759" height="42.8442" fill="white" transform="translate(0.666992 0.577881)"/>
</clipPath>
</defs>
</svg>
