<svg width="84" height="23" viewBox="0 0 84 23" fill="none" xmlns="http://www.w3.org/2000/svg">
<path d="M20.808 16.1088H6.65182L7.3626 14.4436L19.1725 14.419C19.5719 14.419 19.9142 14.0909 19.9855 13.637L21.621 3.10688C21.6638 2.83071 21.5996 2.54634 21.4427 2.33032C21.3652 2.22401 21.2685 2.13837 21.1593 2.07935C21.0501 2.02033 20.931 1.98934 20.8104 1.98853L5.78652 1.9311L5.65816 1.23657C5.57733 0.793604 5.23026 0.470947 4.83565 0.470947H1.16288C0.940324 0.470947 0.726883 0.572641 0.569512 0.753658C0.412141 0.934674 0.32373 1.18019 0.32373 1.43618C0.32373 1.69218 0.412141 1.93769 0.569512 2.11871C0.726883 2.29972 0.940324 2.40142 1.16288 2.40142H4.15577L4.71679 5.46938L6.09794 13.1612L4.3198 16.4999C4.22745 16.6432 4.17184 16.8134 4.15923 16.9913C4.14663 17.1691 4.17754 17.3474 4.24848 17.5061C4.39111 17.8315 4.67875 18.0366 4.9973 18.0366H6.49017C6.17191 18.5228 6.00001 19.115 6.00047 19.7237C6.00047 21.2713 7.09398 22.5292 8.43947 22.5292C9.78497 22.5292 10.8785 21.2713 10.8785 19.7237C10.8785 19.1139 10.7026 18.5206 10.3888 18.0366H14.2184C13.9002 18.5228 13.7283 19.115 13.7287 19.7237C13.7287 21.2713 14.8222 22.5292 16.1677 22.5292C17.5132 22.5292 18.6067 21.2713 18.6067 19.7237C18.6067 19.1139 18.4308 18.5206 18.117 18.0366H20.8104C21.2716 18.0366 21.6495 17.6045 21.6495 17.0713C21.6482 16.8156 21.5589 16.5709 21.4013 16.3906C21.2436 16.2103 21.0303 16.109 20.808 16.1088V16.1088ZM6.13597 3.83423L19.8239 3.88618L18.4831 12.5213L7.73107 12.5432L6.13597 3.83423ZM8.43947 20.5877C8.02584 20.5877 7.68828 20.1995 7.68828 19.7237C7.68828 19.2479 8.02584 18.8596 8.43947 18.8596C8.85311 18.8596 9.19067 19.2479 9.19067 19.7237C9.19067 19.9528 9.11152 20.1726 8.97065 20.3347C8.82977 20.4967 8.6387 20.5877 8.43947 20.5877V20.5877ZM16.1677 20.5877C15.7541 20.5877 15.4165 20.1995 15.4165 19.7237C15.4165 19.2479 15.7541 18.8596 16.1677 18.8596C16.5814 18.8596 16.9189 19.2479 16.9189 19.7237C16.9189 19.9528 16.8398 20.1726 16.6989 20.3347C16.558 20.4967 16.367 20.5877 16.1677 20.5877V20.5877Z" fill="black"/>
<path d="M81.2109 11.2496V5.41626H83.5443V12.4163H81.2109M81.2109 17.0829H83.5443V14.7496H81.2109M69.5443 12.4163C72.6593 12.4163 78.8776 13.9796 78.8776 17.0829V20.5829H60.2109V17.0829C60.2109 13.9796 66.4293 12.4163 69.5443 12.4163ZM69.5443 1.91626C70.7819 1.91626 71.9689 2.40792 72.8441 3.28309C73.7193 4.15826 74.2109 5.34525 74.2109 6.58293C74.2109 7.8206 73.7193 9.00759 72.8441 9.88276C71.9689 10.7579 70.7819 11.2496 69.5443 11.2496C68.3066 11.2496 67.1196 10.7579 66.2444 9.88276C65.3693 9.00759 64.8776 7.8206 64.8776 6.58293C64.8776 5.34525 65.3693 4.15826 66.2444 3.28309C67.1196 2.40792 68.3066 1.91626 69.5443 1.91626M69.5443 14.6329C66.0793 14.6329 62.4276 16.3363 62.4276 17.0829V18.3663H76.6609V17.0829C76.6609 16.3363 73.0093 14.6329 69.5443 14.6329M69.5443 4.13293C68.8945 4.13293 68.2713 4.39105 67.8119 4.85051C67.3524 5.30998 67.0943 5.93315 67.0943 6.58293C67.0943 7.23271 67.3524 7.85587 67.8119 8.31534C68.2713 8.7748 68.8945 9.03293 69.5443 9.03293C70.1941 9.03293 70.8172 8.7748 71.2767 8.31534C71.7361 7.85587 71.9943 7.23271 71.9943 6.58293C71.9943 5.93315 71.7361 5.30998 71.2767 4.85051C70.8172 4.39105 70.1941 4.13293 69.5443 4.13293V4.13293Z" fill="black"/>
</svg>
